<?xml version="1.0" standalone="no"?>
<!DOCTYPE svg PUBLIC "-//W3C//DTD SVG 20010904//EN"
 "http://www.w3.org/TR/2001/REC-SVG-20010904/DTD/svg10.dtd">
<svg version="1.0" xmlns="http://www.w3.org/2000/svg"
 width="331.000000pt" height="126.000000pt" viewBox="0 0 331.000000 126.000000"
 preserveAspectRatio="xMidYMid meet">
<metadata>
Created by potrace 1.15, written by Peter Selinger 2001-2017
</metadata>
<g transform="translate(0.000000,126.000000) scale(0.100000,-0.100000)"
fill="#000000" stroke="none">
<path d="M280 1024 c0 -17 -14 -39 -40 -65 -45 -44 -52 -86 -25 -138 14 -28
14 -29 -13 -35 -15 -4 -39 -12 -54 -18 -40 -15 -38 -52 4 -78 32 -19 33 -21
34 -97 2 -45 7 -79 13 -81 6 -2 11 -14 11 -26 0 -34 39 -86 87 -115 23 -14 69
-45 102 -68 61 -43 85 -51 96 -33 3 5 14 10 24 10 10 0 24 7 31 15 7 8 21 15
32 15 11 0 32 12 48 28 15 15 45 39 68 54 31 20 44 38 53 70 7 24 16 45 21 48
10 8 13 110 4 135 -6 17 -1 24 29 38 65 31 59 71 -16 95 -56 19 -54 17 -35 44
9 12 16 39 16 58 0 29 -8 44 -40 75 -24 23 -40 48 -40 62 0 29 -24 40 -46 22
-10 -8 -15 -25 -12 -48 l3 -36 -60 -1 c-82 -2 -116 -2 -183 0 l-57 1 3 33 c5
37 -11 62 -39 62 -14 0 -19 -7 -19 -26z"/>
<path d="M1014 775 c-9 -23 3 -45 26 -45 18 0 20 -6 20 -74 0 -70 -1 -75 -22
-78 -17 -2 -23 -10 -23 -28 0 -25 1 -25 80 -25 79 0 80 0 80 25 0 20 -6 26
-27 28 -28 3 -28 4 -28 77 0 73 0 74 28 77 21 2 27 8 27 28 0 24 -2 25 -78 28
-62 2 -78 0 -83 -13z m151 -15 c0 -9 -11 -16 -27 -18 l-28 -3 0 -84 0 -84 28
-3 c16 -2 27 -9 27 -18 0 -12 -14 -15 -70 -15 -56 0 -70 3 -70 15 0 8 10 16
23 18 21 3 22 8 22 88 0 76 -2 84 -19 84 -11 0 -23 5 -26 10 -14 22 9 31 73
28 52 -2 67 -6 67 -18z"/>
<path d="M1257 775 c-14 -13 -17 -37 -17 -123 0 -114 6 -136 36 -130 14 2 20
13 22 46 l3 42 43 0 c39 0 45 -4 75 -46 24 -33 39 -44 54 -42 31 4 32 31 2 66
l-26 31 26 25 c32 32 33 76 1 113 -23 26 -30 28 -113 31 -74 3 -93 1 -106 -13z
m209 -28 c31 -36 30 -62 -1 -93 -31 -31 -31 -39 0 -76 23 -27 26 -48 6 -48 -4
0 -22 20 -41 45 -33 43 -36 45 -87 45 l-53 0 0 -39 c0 -42 -16 -63 -31 -40 -5
8 -9 58 -9 111 0 126 5 131 113 126 72 -3 81 -6 103 -31z"/>
<path d="M1577 775 c-24 -23 -25 -216 -1 -239 19 -19 163 -22 213 -5 50 18 68
74 34 111 -13 14 -14 21 -5 30 20 20 14 73 -9 94 -30 27 -207 34 -232 9z m222
-19 c22 -20 28 -60 11 -71 -15 -9 -12 -36 6 -56 25 -28 10 -67 -31 -85 -48
-20 -179 -19 -199 2 -24 23 -23 196 1 219 24 25 182 18 212 -9z"/>
<path d="M1912 778 c-18 -18 -17 -232 2 -247 9 -8 50 -11 117 -9 103 3 104 3
104 28 0 25 -2 25 -87 28 -86 3 -88 3 -88 27 0 23 3 24 73 27 65 3 72 5 75 25
3 18 -3 23 -32 29 -20 3 -54 4 -76 2 -36 -3 -40 -1 -40 19 0 21 4 22 88 25 85
3 87 3 87 28 0 25 0 25 -105 28 -73 2 -109 -1 -118 -10z m213 -18 c0 -12 -18
-16 -87 -18 l-88 -3 0 -34 0 -35 76 0 c56 0 75 -3 72 -12 -3 -9 -30 -14 -76
-16 l-72 -3 0 -34 0 -34 88 -3 c69 -2 87 -6 87 -18 0 -12 -18 -16 -94 -18 -60
-2 -98 1 -107 9 -19 15 -20 209 -2 227 9 9 42 12 108 10 76 -2 95 -6 95 -18z"/>
<path d="M2312 782 c-20 -14 -123 -215 -120 -237 5 -32 36 -30 56 4 17 30 19
31 92 31 73 0 75 -1 92 -31 20 -34 51 -36 56 -4 3 21 -101 224 -121 237 -16
10 -39 10 -55 0z m44 -10 c7 -4 38 -56 69 -115 41 -78 54 -112 47 -119 -8 -8
-16 -2 -29 20 -18 32 -18 32 -103 32 -85 0 -85 0 -103 -32 -12 -21 -21 -28
-28 -21 -7 7 5 42 40 110 61 123 79 144 107 125z"/>
<path d="M2581 772 c-47 -23 -61 -64 -34 -101 23 -29 52 -38 135 -40 60 -1 78
-12 57 -37 -13 -16 -90 -15 -166 1 -30 7 -33 5 -33 -16 0 -14 9 -30 22 -38 31
-19 138 -26 182 -11 65 21 84 101 31 136 -12 8 -53 17 -91 20 -92 8 -100 10
-84 29 14 17 125 21 135 5 3 -5 17 -10 31 -10 19 0 24 5 24 24 0 49 -138 75
-209 38z m153 -6 c35 -15 52 -33 42 -44 -4 -3 -16 -1 -26 6 -29 18 -145 16
-160 -3 -24 -29 -5 -42 73 -48 84 -6 114 -18 126 -50 27 -73 -95 -123 -199
-81 -22 9 -40 23 -40 31 0 11 5 13 18 7 9 -4 50 -9 90 -12 79 -5 105 6 100 42
-3 19 -12 22 -88 28 -74 6 -88 10 -107 33 -58 67 68 134 171 91z"/>
<path d="M2850 775 c-23 -28 -5 -45 50 -45 l50 0 0 -92 c0 -100 7 -122 36
-116 17 3 19 15 22 105 l3 102 52 3 c48 3 52 5 52 28 l0 25 -126 3 c-103 2
-128 0 -139 -13z m255 -15 c0 -11 -14 -16 -52 -18 l-53 -3 0 -99 c0 -62 -4
-101 -11 -106 -20 -12 -29 20 -29 114 l0 92 -48 0 c-55 0 -67 7 -50 27 17 21
243 14 243 -7z"/>
</g>
</svg>
